<svg width="62" height="62" viewBox="0 0 62 62" fill="none" xmlns="http://www.w3.org/2000/svg">
<path d="M14.1067 22.2812C14.9598 22.2812 15.6538 22.9627 15.6737 23.8111L15.6742 23.8487V38.1296C15.6742 38.9826 14.9925 39.6766 14.1443 39.6965L14.1067 39.697H1.56742C0.714398 39.697 0.020378 39.0153 0.000440614 38.1671L0 38.1296V23.8487C0 22.9954 0.681658 22.3016 1.52989 22.2817L1.56742 22.2812H14.1067ZM14.1067 23.152H1.56742C1.19233 23.152 0.885365 23.4503 0.871291 23.822L0.870787 23.8487V38.1296C0.870787 38.5047 1.16903 38.8116 1.54074 38.8257L1.56742 38.8262H14.1067C14.482 38.8262 14.7888 38.528 14.8029 38.1562L14.8034 38.1296V23.8487C14.8034 23.4646 14.491 23.152 14.1067 23.152ZM3.91854 33.6015L5.87781 35.343L3.91854 37.0846V33.6015ZM5.66011 24.8936V29.8377C6.52959 29.5547 7.74499 29.2475 8.92556 29.2475C10.0021 29.2475 10.6465 29.6707 10.9974 30.0258C11.7351 30.7721 11.7562 31.7197 11.7554 31.8543L11.7554 31.8599L11.7556 37.0846H10.014V31.8838C10.0056 31.4774 9.80963 30.9891 8.92556 30.9891C7.17252 30.9891 5.20826 31.862 5.14992 31.8881L5.14874 31.8886L3.91854 32.4459V24.8936H5.66011ZM11.7556 24.8936C11.6381 25.8828 11.2371 26.8311 10.4494 27.7237H8.70786C9.3923 26.8257 9.82204 25.8806 10.014 24.8936H11.7556Z" fill="white"/>
<path d="M44.2107 27.8298C45.7559 27.8298 47.3619 28.8112 47.3619 31.1632C47.3619 33.5156 45.7559 34.4966 44.2107 34.4966C42.6568 34.4966 41.0511 33.5156 41.0511 31.1632C41.0511 28.8112 42.6568 27.8298 44.2107 27.8298ZM58.3453 27.9515V31.7886C58.3453 32.6736 58.6318 33.0731 59.3265 33.0731C60.0207 33.0731 60.2985 32.6736 60.2985 31.7886V27.9515H62V31.7971C62 33.4989 61.1841 34.4707 59.3091 34.4707C57.4338 34.4707 56.6092 33.4989 56.6092 31.7971V27.9515H58.3453ZM21.3288 27.9515V30.3386H23.4642V27.9515H25.2006V34.3753H23.4642V31.7797H21.3288V34.3753H19.5927V27.9515H21.3288ZM32.0201 27.9515V29.3927H29.1729V30.4344H31.2042V31.7886H29.1729V32.9777H32.1679V34.3753H27.4367V27.9515H32.0201ZM36.5835 27.9515C38.2328 27.9515 39.2398 28.4986 39.2398 30.0436C39.2398 31.0504 38.8142 31.6323 37.9724 31.9184L39.3352 34.3753H37.495L36.2535 32.1446H35.776V34.3753H34.0747V27.9515H36.5835ZM51.0305 27.9515V30.2783L52.8017 27.9515H54.8154L52.6538 30.4864L55.0063 34.3753H53.0444L51.5255 31.8056L51.0305 32.3786V34.3753H49.2946V27.9515H51.0305ZM44.2107 29.2623C43.2992 29.2623 42.7872 29.9826 42.7872 31.1632C42.7872 32.3442 43.2992 33.1079 44.2107 33.1079C45.1135 33.1079 45.6255 32.3442 45.6255 31.1632C45.6255 29.9826 45.1135 29.2623 44.2107 29.2623ZM36.5225 29.3576H35.776V30.8247H36.5225C37.2344 30.8247 37.5468 30.6251 37.5468 30.0869C37.5468 29.549 37.2344 29.3576 36.5225 29.3576Z" fill="white"/>
</svg>
