<svg width="76" height="76" viewBox="0 0 76 76" fill="none" xmlns="http://www.w3.org/2000/svg">
<path d="M56.7102 59.9319H56.424V59.7717H57.1948V59.9319H56.9103V60.7311H56.7102V59.9319V59.9319ZM58.2476 59.9736H58.2431L57.9593 60.7314H57.8295L57.5476 59.9736H57.5442V60.7314H57.3555V59.772H57.6332L57.8945 60.4514L58.155 59.772H58.4317V60.7314H58.2475L58.2476 59.9736V59.9736Z" fill="#E76F00"/>
<path d="M31.0789 40.3145C31.0789 40.3145 29.0868 41.473 32.4966 41.865C36.6274 42.3362 38.7386 42.2686 43.2909 41.4071C43.2909 41.4071 44.4877 42.1575 46.1591 42.8075C35.9542 47.1811 23.0635 42.5541 31.0789 40.3145ZM29.8319 34.6072C29.8319 34.6072 27.5976 36.2611 31.0099 36.614C35.4226 37.0692 38.9074 37.1065 44.9374 35.9453C44.9374 35.9453 45.7716 36.7909 47.0831 37.2533C34.7446 40.8612 21.002 37.5378 29.8319 34.6072" fill="#5382A1"/>
<path d="M40.3443 24.9255C42.8588 27.8204 39.6838 30.4257 39.6838 30.4257C39.6838 30.4257 46.0682 27.1297 43.1362 23.0024C40.3976 19.1532 38.2974 17.241 49.6667 10.6472C49.6668 10.6471 31.8207 15.1042 40.3443 24.9255" fill="#E76F00"/>
<path d="M53.8411 44.5358C53.8411 44.5358 55.3153 45.7506 52.2176 46.6901C46.3272 48.4746 27.7011 49.0134 22.5269 46.7614C20.6669 45.9521 24.1549 44.8292 25.2521 44.5935C26.3964 44.3454 27.0503 44.3916 27.0503 44.3916C24.9818 42.9344 13.6803 47.2527 21.3097 48.4896C42.1162 51.8638 59.2382 46.9702 53.8411 44.5358M32.0368 28.6936C32.0368 28.6936 22.5624 30.9439 28.6817 31.7611C31.2655 32.107 36.4161 32.0287 41.2136 31.6267C45.1346 31.296 49.0718 30.5929 49.0718 30.5929C49.0718 30.5929 47.6892 31.185 46.689 31.8679C37.0679 34.3984 18.4817 33.2211 23.8325 30.6328C28.3576 28.4454 32.0368 28.6936 32.0368 28.6936M49.0327 38.1937C58.813 33.1115 54.2911 28.2274 51.1347 28.8855C50.3611 29.0465 50.0161 29.186 50.0161 29.186C50.0161 29.186 50.3035 28.7361 50.8517 28.5414C57.0959 26.3462 61.8981 35.016 48.836 38.45C48.836 38.45 48.9876 38.3148 49.0327 38.1937Z" fill="#5382A1"/>
<path d="M43.1362 0C43.1362 0 48.5526 5.41815 37.9989 13.7501C29.5358 20.4335 36.069 24.2443 37.9954 28.5984C33.0555 24.1411 29.4302 20.2177 31.8623 16.566C35.432 11.2056 45.3216 8.60663 43.1362 0" fill="#E76F00"/>
<path d="M32.9979 51.9653C42.3857 52.5662 56.8018 51.6319 57.1431 47.1899C57.1431 47.1899 56.4869 48.8738 49.3846 50.2112C41.372 51.719 31.4893 51.5431 25.6278 50.5767C25.6281 50.5764 26.8279 51.5696 32.9979 51.9653" fill="#5382A1"/>
<path d="M31.4594 68.9387C30.5738 69.7069 29.6384 70.1381 28.799 70.1381C27.6009 70.1381 26.9536 69.4197 26.9536 68.2674C26.9536 67.021 27.6473 66.1096 30.4296 66.1096H31.4592L31.4594 68.9387M33.903 71.6958V63.1613C33.903 60.9809 32.6595 59.5424 29.6615 59.5424C27.9112 59.5424 26.378 59.9746 25.1319 60.5258L25.4915 62.0365C26.4727 61.6764 27.7427 61.3412 28.9893 61.3412C30.7164 61.3412 31.4594 62.0365 31.4594 63.4742V64.553H30.5974C26.4012 64.553 24.5083 66.1819 24.5083 68.6267C24.5083 70.7368 25.7557 71.9361 28.1044 71.9361C29.6141 71.9361 30.7411 71.3127 31.7946 70.4005L31.9858 71.6961L33.903 71.6958V71.6958ZM42.0584 71.6958H39.0107L35.3426 59.7585H38.0044L40.2803 67.0928L40.7862 69.2985C41.9377 66.1094 42.7522 62.8738 43.1595 59.7585H45.7486C45.0548 63.6893 43.8065 68.0039 42.0584 71.6958M53.7503 68.9387C52.863 69.7069 51.9262 70.1381 51.0866 70.1381C49.8907 70.1381 49.2417 69.4197 49.2417 68.2674C49.2417 67.021 49.9367 66.1096 52.7189 66.1096H53.7503V68.9387ZM56.1937 71.6958V63.1613C56.1937 60.9809 54.9473 59.5424 51.9524 59.5424C50.201 59.5424 48.6673 59.9746 47.4217 60.5258L47.781 62.0365C48.7624 61.6764 50.0348 61.3412 51.2804 61.3412C53.0062 61.3412 53.7503 62.0365 53.7503 63.4742V64.553H52.8868C48.6895 64.553 46.7973 66.1819 46.7973 68.6267C46.7973 70.7368 48.0437 71.9361 50.392 71.9361C51.9027 71.9361 53.0293 71.3127 54.0844 70.4005L54.2764 71.6961L56.1937 71.6958V71.6958ZM21.8289 73.7229C21.1322 74.74 20.0071 75.5447 18.7753 75.9999L17.5687 74.5801C18.5063 74.099 19.3104 73.322 19.6841 72.5984C20.0072 71.9548 20.141 71.1253 20.141 69.1415V55.5132H22.7372V68.9547C22.7371 71.6068 22.5251 72.6781 21.8289 73.7229" fill="#E76F00"/>
</svg>
