<svg width="64" height="64" viewBox="0 0 64 64" fill="none" xmlns="http://www.w3.org/2000/svg">
<g clip-path="url(#clip0_262_163)">
<path d="M63.7717 30.5541C63.3151 30.0975 57.4554 22.7158 56.4661 21.4982C55.4007 20.2806 54.9441 20.5089 54.2592 20.585C53.5743 20.6611 46.1926 21.9548 45.3555 22.0309C44.5184 22.1831 43.9857 22.4875 44.5184 23.2485C44.975 23.9334 49.8454 30.7824 50.9108 32.3805L31.5054 37.0226L16.1332 11.2247C15.5244 10.3115 15.3722 10.0071 14.0024 10.0832C12.6326 10.1593 1.9025 11.0725 1.1415 11.0725C0.380503 11.1486 -0.456595 11.453 0.304403 13.2794C1.0654 15.1058 13.2414 41.2842 13.5458 42.0452C13.8502 42.8062 14.7634 44.0238 16.8181 43.5672C18.9489 43.0345 26.2545 41.132 30.2878 40.0666C32.4186 43.8716 36.6801 51.6338 37.5172 52.7753C38.5826 54.2973 39.3436 53.9929 40.9417 53.5363C42.2354 53.1558 60.8799 46.459 61.717 46.0785C62.5541 45.698 63.0868 45.4697 62.478 44.6326C62.0214 44.0238 57.151 37.4031 54.5636 33.9786C56.3139 33.522 62.6302 31.8478 63.3151 31.6195C64.0761 31.3912 64.2283 31.0107 63.7717 30.5541V30.5541ZM28.5375 37.7836C28.3092 37.8597 17.4269 40.4471 16.8942 40.5993C16.2854 40.7515 16.2854 40.6754 16.2854 40.4471C16.1332 40.2188 3.3484 13.736 3.1201 13.4316C2.9679 13.1272 2.9679 12.8228 3.1201 12.8228C3.2723 12.8228 13.3936 11.9096 13.698 11.9096C14.0785 11.9096 14.0024 11.9857 14.1546 12.214C14.1546 12.214 28.3853 36.7943 28.6136 37.1748C28.918 37.5553 28.7658 37.7075 28.5375 37.7836V37.7836ZM59.1296 43.4911C59.2818 43.7955 59.5101 43.9477 58.9013 44.0999C58.3686 44.3282 40.5612 50.3401 40.1807 50.4923C39.8002 50.6445 39.5719 50.7206 39.1153 50.0357C38.6587 49.3508 32.8752 39.3817 32.8752 39.3817L51.824 34.4352C52.2806 34.283 52.4328 34.2069 52.7372 34.6635C53.0416 35.1962 58.9774 43.2628 59.1296 43.4911ZM60.3472 30.0975C59.8906 30.1736 52.9655 31.9239 52.9655 31.9239L47.258 24.1617C47.1058 23.9334 46.9536 23.7051 47.3341 23.629C47.7146 23.5529 54.1831 22.4114 54.4875 22.3353C54.7919 22.2592 55.0202 22.1831 55.4007 22.7158C55.7812 23.1724 60.6516 29.4126 60.8799 29.6409C61.1082 29.8692 60.8038 30.0214 60.3472 30.0975Z" fill="#FB503B"/>
</g>
<defs>
<clipPath id="clip0_262_163">
<rect width="64" height="64" fill="white"/>
</clipPath>
</defs>
</svg>
