<svg width="51" height="51" viewBox="0 0 51 51" fill="none" xmlns="http://www.w3.org/2000/svg">
<path d="M19.125 20.5196C18.5273 21.9141 14.3437 26.2969 14.7422 30.6797C16.3359 49.0079 21.9141 36.6563 30.2812 41.2383C30.2812 41.2383 45.2227 32.8711 33.2695 19.3243C29.8828 14.543 32.8711 10.7579 30.6797 7.57036C28.4883 4.38286 24.7031 4.18364 21.9141 7.17192C19.125 10.1602 23.1094 14.543 19.125 20.5196Z" fill="#333333"/>
<path d="M33.8672 29.6836C33.8672 29.6836 35.6602 26.0977 32.2734 23.5078C35.4609 26.8946 33.4687 29.8828 33.4687 29.8828H32.8711C32.6719 22.9102 30.8789 26.6953 28.2891 14.3438C31.2773 10.9571 25.5 7.96878 25.5 13.5469H23.707C23.9063 8.76566 19.7227 11.1563 22.1133 14.543C21.9141 21.9141 17.5313 24.9024 17.5313 30.0821C16.1367 26.4961 18.7266 23.7071 18.7266 23.7071C18.7266 23.7071 15.1406 26.6953 17.332 31.0782C19.5234 35.461 23.5078 34.4649 20.7188 36.4571C25.1016 39.4453 31.875 37.4532 31.6758 31.0782C31.875 29.4844 36.0586 30.0821 36.457 30.4805C36.8555 30.8789 35.8594 29.6836 33.8672 29.6836ZM22.7109 14.1446C21.3164 13.7461 21.7148 11.9532 22.3125 11.9532C22.9102 11.9532 23.9062 13.3477 22.7109 14.1446ZM26.4961 14.3438C25.5 12.9493 26.2969 11.5547 27.293 11.7539C28.2891 11.9532 28.2891 14.3438 26.4961 14.3438Z" fill="#EEEEEE"/>
<path d="M17.332 31.6758L21.5156 37.6523C23.707 39.0469 22.5117 44.625 16.5352 41.8359C13.1484 40.8398 10.3594 41.0391 9.96093 39.2461C9.5625 37.4531 10.7578 37.2539 10.5586 36.457C9.76171 32.0742 13.3477 34.2656 14.3437 32.0742C15.3398 29.8828 15.3398 28.8867 17.332 31.6758ZM39.6445 34.4648C38.8477 33.2695 39.6445 31.0781 36.8555 31.2773C35.6602 33.668 32.2734 36.0586 32.0742 31.2773C30.082 31.2773 31.4766 36.0586 30.6797 38.25C28.8867 43.6289 34.0664 44.0273 36.2578 41.4375L41.4375 37.8516C41.8359 37.2539 42.4336 36.6562 39.6445 34.4648ZM21.3164 16.1367C20.7187 14.9414 23.5078 13.3477 24.5039 13.3477C25.5 13.3477 26.8945 14.1445 28.2891 14.543C29.6836 14.9414 29.0859 16.3359 28.6875 16.5352C28.2891 16.7344 26.0977 18.5273 24.5039 18.5273C22.9102 18.5273 22.5117 16.9336 21.3164 16.1367Z" fill="#FFCC22" stroke="#333333" stroke-width="2"/>
<path d="M21.3164 15.9375C22.9102 17.1328 24.7031 18.1289 28.2891 15.3398Z" fill="#FFCC22"/>
<path d="M21.3164 15.9375C22.9102 17.1328 24.7031 18.1289 28.2891 15.3398" stroke="#333333" stroke-width="2"/>
<path d="M23.5078 14.7422C23.1094 14.7422 23.707 14.3437 23.9062 14.543ZM25.3008 14.7422C25.5 14.543 25.1016 14.3437 24.7031 14.543Z" fill="#333333"/>
</svg>
