<svg width="70" height="70" viewBox="0 0 70 70" fill="none" xmlns="http://www.w3.org/2000/svg">
<path d="M34.6049 56.3411C34.368 56.3411 34.1467 56.2779 33.9413 56.1673L31.8398 54.919C31.5237 54.7451 31.6817 54.682 31.7766 54.6504C32.2032 54.5082 32.2822 54.4765 32.7246 54.2238C32.772 54.1921 32.8353 54.208 32.8826 54.2396L34.4944 55.2034C34.5576 55.235 34.6366 55.235 34.6839 55.2034L40.9887 51.5533C41.0519 51.5217 41.0836 51.4584 41.0836 51.3795V44.0952C41.0836 44.016 41.0519 43.953 40.9887 43.9213L34.6839 40.287C34.6208 40.2553 34.5417 40.2553 34.4944 40.287L28.1896 43.9213C28.1265 43.9528 28.0948 44.0319 28.0948 44.095V51.3794C28.0948 51.4427 28.1265 51.5216 28.1896 51.5533L29.912 52.5487C30.8443 53.0228 31.4289 52.4697 31.4289 51.9167V44.7271C31.4289 44.6323 31.5079 44.5374 31.6185 44.5374H32.4244C32.5192 44.5374 32.614 44.6165 32.614 44.7271V51.9167C32.614 53.1649 31.9345 53.8919 30.7494 53.8919C30.386 53.8919 30.1016 53.8919 29.2957 53.4968L27.6366 52.5487C27.2258 52.3118 26.973 51.8693 26.973 51.3953V44.1109C26.973 43.6369 27.2258 43.1943 27.6366 42.9574L33.9413 39.3073C34.3364 39.0861 34.8737 39.0861 35.2687 39.3073L41.5733 42.9574C41.9842 43.1943 42.2371 43.6369 42.2371 44.1109V51.3953C42.2371 51.8693 41.9842 52.3118 41.5733 52.5487L35.2687 56.1989C35.0632 56.2937 34.8262 56.3411 34.605 56.3411H34.6049ZM36.5485 51.3321C33.7833 51.3321 33.2145 50.068 33.2145 48.9935C33.2145 48.8986 33.2935 48.8039 33.4041 48.8039H34.2258C34.3205 48.8039 34.3995 48.8671 34.3995 48.9619C34.526 49.7993 34.8894 50.2102 36.5643 50.2102C37.8916 50.2102 38.4606 49.9099 38.4606 49.1989C38.4606 48.788 38.3025 48.4879 36.2325 48.2824C34.5101 48.1085 33.4357 47.7294 33.4357 46.3547C33.4357 45.0747 34.5103 44.3162 36.3115 44.3162C38.334 44.3162 39.3296 45.0116 39.4561 46.5283C39.4561 46.5759 39.4402 46.6232 39.4086 46.6707C39.3769 46.7022 39.3296 46.7338 39.2822 46.7338H38.4605C38.3815 46.7338 38.3025 46.6707 38.2867 46.5916C38.0971 45.7227 37.6072 45.4381 36.3115 45.4381C34.8578 45.4381 34.6839 45.9439 34.6839 46.323C34.6839 46.7813 34.8894 46.9235 36.8487 47.1763C38.7923 47.4292 39.7089 47.7926 39.7089 49.1514C39.693 50.542 38.5554 51.3321 36.5485 51.3321Z" fill="#539E43"/>
<path d="M15.0429 27.8513C15.0429 27.5669 14.8848 27.2981 14.6321 27.1559L7.93229 23.3005C7.82155 23.2372 7.69522 23.2056 7.56889 23.1897H7.50559C7.37926 23.1897 7.2528 23.2372 7.14219 23.3005L0.442426 27.1559C0.189496 27.2981 0.0315857 27.5668 0.0315857 27.8513L0.0474451 38.2169C0.0474451 38.3591 0.126469 38.5013 0.252797 38.5646C0.379261 38.6436 0.537172 38.6436 0.647914 38.5646L4.62985 36.2892C4.88264 36.147 5.04069 35.8783 5.04069 35.5939V30.7429C5.04069 30.4585 5.1986 30.1899 5.45153 30.0477L7.14219 29.0679C7.26866 28.9889 7.41084 28.9572 7.55303 28.9572C7.69522 28.9572 7.83741 28.9889 7.94815 29.0679L9.63881 30.0477C9.89174 30.1899 10.0497 30.4584 10.0497 30.7429V35.5939C10.0497 35.8783 10.2077 36.147 10.4605 36.2892L14.4424 38.5646C14.5689 38.6436 14.7268 38.6436 14.8533 38.5646C14.9797 38.5013 15.0588 38.3591 15.0588 38.2169L15.0429 27.8513ZM47.246 13.5826C47.1197 13.5193 46.9617 13.5193 46.8509 13.5826C46.7246 13.6617 46.6456 13.788 46.6456 13.9302V24.2012C46.6456 24.2959 46.5983 24.3907 46.5034 24.454C46.4086 24.5013 46.3138 24.5013 46.219 24.454L44.5441 23.4901C44.4213 23.4202 44.2824 23.3834 44.1411 23.3834C43.9998 23.3834 43.8609 23.4202 43.7381 23.4901L37.0383 27.3614C36.7856 27.5036 36.6275 27.7723 36.6275 28.0566V35.7834C36.6275 36.0678 36.7856 36.3366 37.0383 36.4788L43.7381 40.3501C43.8609 40.42 43.9998 40.4568 44.1411 40.4568C44.2824 40.4568 44.4213 40.42 44.5441 40.3501L51.2438 36.4788C51.4966 36.3366 51.6547 36.0679 51.6547 35.7834V16.5217C51.6547 16.2214 51.4966 15.9529 51.2438 15.8106L47.246 13.5826ZM46.6298 33.2395C46.6298 33.3185 46.5983 33.3817 46.535 33.4133L44.2438 34.7405C44.2118 34.7562 44.1767 34.7643 44.1411 34.7643C44.1055 34.7643 44.0703 34.7562 44.0383 34.7405L41.7472 33.4133C41.6839 33.3817 41.6523 33.3027 41.6523 33.2395V30.5848C41.6523 30.5058 41.6839 30.4427 41.7472 30.4111L44.0383 29.0837C44.0703 29.0681 44.1055 29.0599 44.1411 29.0599C44.1767 29.0599 44.2118 29.0681 44.2438 29.0837L46.535 30.4111C46.5983 30.4425 46.6298 30.5217 46.6298 30.5848V33.2395ZM69.5417 30.5217C69.7947 30.3795 69.9368 30.1108 69.9368 29.8263V27.946C69.9368 27.6617 69.7788 27.393 69.5417 27.2508L62.8894 23.3953C62.7666 23.3255 62.6278 23.2887 62.4865 23.2887C62.3452 23.2887 62.2064 23.3255 62.0836 23.3953L55.3838 27.2665C55.1309 27.4087 54.973 27.6774 54.973 27.9619V35.6887C54.973 35.9731 55.1309 36.2417 55.3838 36.3839L62.0361 40.1762C62.2891 40.3184 62.5892 40.3184 62.8262 40.1762L66.8555 37.9327C66.9819 37.8693 67.061 37.7272 67.061 37.585C67.061 37.4428 66.9819 37.3006 66.8555 37.2373L60.1241 33.366C59.9978 33.2871 59.9188 33.1606 59.9188 33.0184V30.6008C59.9188 30.4586 59.9978 30.3165 60.1241 30.2532L62.2258 29.0522C62.2873 29.0135 62.3585 28.993 62.4312 28.993C62.5039 28.993 62.5751 29.0135 62.6366 29.0522L64.7381 30.2532C64.8646 30.3322 64.9436 30.4585 64.9436 30.6008V32.497C64.9436 32.6392 65.0226 32.7814 65.149 32.8445C65.2754 32.9235 65.4333 32.9235 65.5598 32.8445L69.5417 30.5217Z" fill="white"/>
<path d="M62.3838 30.1582C62.4073 30.1427 62.4347 30.1345 62.4628 30.1345C62.4908 30.1345 62.5183 30.1427 62.5417 30.1582L63.8217 30.9008C63.8691 30.9323 63.9007 30.9797 63.9007 31.043V32.5283C63.9007 32.5915 63.8691 32.6389 63.8217 32.6705L62.5417 33.4132C62.5183 33.4286 62.4908 33.4368 62.4628 33.4368C62.4347 33.4368 62.4073 33.4286 62.3838 33.4132L61.1038 32.6705C61.0564 32.6389 61.0248 32.5915 61.0248 32.5283V31.043C61.0248 30.9797 61.0564 30.9323 61.1038 30.9008L62.3838 30.1582V30.1582Z" fill="#539E43"/>
<mask id="mask0_262_144" style="mask-type:alpha" maskUnits="userSpaceOnUse" x="18" y="23" width="16" height="18">
<path d="M26.246 23.427C26.1233 23.3571 25.9844 23.3203 25.8431 23.3203C25.7018 23.3203 25.563 23.3571 25.4402 23.427L18.7879 27.2664C18.535 27.4086 18.3928 27.6773 18.3928 27.9616V35.657C18.3928 35.9414 18.5508 36.21 18.7879 36.3522L25.4402 40.192C25.563 40.2619 25.7018 40.2986 25.8431 40.2986C25.9844 40.2986 26.1233 40.2619 26.246 40.192L32.8985 36.3522C33.1513 36.21 33.2936 35.9414 33.2936 35.657V27.9618C33.2936 27.6774 33.1354 27.4088 32.8985 27.2666L26.246 23.427Z" fill="white"/>
</mask>
<g mask="url(#mask0_262_144)">
<path d="M26.246 23.427C26.1233 23.3571 25.9844 23.3203 25.8431 23.3203C25.7018 23.3203 25.563 23.3571 25.4402 23.427L18.7879 27.2664C18.535 27.4086 18.3928 27.6773 18.3928 27.9616V35.657C18.3928 35.9414 18.5508 36.21 18.7879 36.3522L25.4402 40.192C25.563 40.2619 25.7018 40.2986 25.8431 40.2986C25.9844 40.2986 26.1233 40.2619 26.246 40.192L32.8985 36.3522C33.1513 36.21 33.2936 35.9414 33.2936 35.657V27.9618C33.2936 27.6774 33.1354 27.4088 32.8985 27.2666L26.246 23.427Z" fill="url(#paint0_linear_262_144)"/>
<path d="M32.9142 27.2665L26.2303 23.4269C26.1646 23.3938 26.0958 23.3673 26.0248 23.3479L18.535 36.1787C18.597 36.2544 18.6719 36.3186 18.7563 36.3683L25.4402 40.2081C25.6298 40.3187 25.8511 40.3502 26.0564 40.2869L33.0881 27.4247C33.0407 27.3616 32.9774 27.314 32.9142 27.2667V27.2665Z" fill="url(#paint1_linear_262_144)"/>
<path fill-rule="evenodd" clip-rule="evenodd" d="M32.9301 36.3523C33.1197 36.2417 33.2619 36.052 33.3252 35.8467L25.9931 23.332C25.8035 23.3004 25.598 23.3161 25.4244 23.4268L18.7878 27.2508L25.9457 40.3026C26.0498 40.2856 26.1509 40.2537 26.2459 40.2079L32.9299 36.3524L32.9301 36.3523Z" fill="url(#paint2_linear_262_144)"/>
<path fill-rule="evenodd" clip-rule="evenodd" d="M32.9301 36.3523L26.2619 40.192C26.1678 40.24 26.0663 40.272 25.9617 40.2867L26.0881 40.5238L33.4831 36.2418V36.1469L33.2935 35.8308C33.2619 36.052 33.1197 36.2417 32.9301 36.3523V36.3523Z" fill="url(#paint3_linear_262_144)"/>
<path fill-rule="evenodd" clip-rule="evenodd" d="M32.9301 36.3523L26.2619 40.192C26.1678 40.24 26.0663 40.272 25.9617 40.2867L26.0881 40.5238L33.4831 36.2418V36.1469L33.2935 35.8308C33.2619 36.052 33.1197 36.2417 32.9301 36.3523V36.3523Z" fill="url(#paint4_linear_262_144)"/>
</g>
<defs>
<linearGradient id="paint0_linear_262_144" x1="28.5534" y1="26.2893" x2="21.2618" y2="37.7466" gradientUnits="userSpaceOnUse">
<stop stop-color="#41873F"/>
<stop offset="0.3288" stop-color="#418B3D"/>
<stop offset="0.6352" stop-color="#419637"/>
<stop offset="0.9319" stop-color="#3FA92D"/>
<stop offset="1" stop-color="#3FAE2A"/>
</linearGradient>
<linearGradient id="paint1_linear_262_144" x1="24.8331" y1="32.7108" x2="43.0946" y2="22.7893" gradientUnits="userSpaceOnUse">
<stop offset="0.1376" stop-color="#41873F"/>
<stop offset="0.4032" stop-color="#54A044"/>
<stop offset="0.7136" stop-color="#66B848"/>
<stop offset="0.9081" stop-color="#6CC04A"/>
</linearGradient>
<linearGradient id="paint2_linear_262_144" x1="18.1497" y1="31.8096" x2="33.5431" y2="31.8096" gradientUnits="userSpaceOnUse">
<stop offset="0.09192" stop-color="#6CC04A"/>
<stop offset="0.2864" stop-color="#66B848"/>
<stop offset="0.5968" stop-color="#54A044"/>
<stop offset="0.8624" stop-color="#41873F"/>
</linearGradient>
<linearGradient id="paint3_linear_262_144" x1="18.1498" y1="38.1902" x2="33.543" y2="38.1902" gradientUnits="userSpaceOnUse">
<stop offset="0.09192" stop-color="#6CC04A"/>
<stop offset="0.2864" stop-color="#66B848"/>
<stop offset="0.5968" stop-color="#54A044"/>
<stop offset="0.8624" stop-color="#41873F"/>
</linearGradient>
<linearGradient id="paint4_linear_262_144" x1="35.7856" y1="25.9253" x2="31.8859" y2="46.3597" gradientUnits="userSpaceOnUse">
<stop stop-color="#41873F"/>
<stop offset="0.3288" stop-color="#418B3D"/>
<stop offset="0.6352" stop-color="#419637"/>
<stop offset="0.9319" stop-color="#3FA92D"/>
<stop offset="1" stop-color="#3FAE2A"/>
</linearGradient>
</defs>
</svg>
