<svg width="64" height="64" viewBox="0 0 64 64" fill="none" xmlns="http://www.w3.org/2000/svg">
<path d="M59.014 37.546C58.8451 37.0545 58.5407 36.6208 58.1358 36.2948C57.731 35.9689 57.2423 35.7641 56.726 35.704C56.1161 35.6307 55.498 35.6652 54.9 35.806C53.9751 36.0103 53.0343 36.1341 52.088 36.176C54.6185 31.9069 56.5512 27.3107 57.832 22.516C59.738 15.138 58.72 11.778 57.53 10.256C55.9497 8.25674 53.9272 6.65123 51.6215 5.56571C49.3159 4.4802 46.7898 3.94426 44.242 4.00004C41.9047 3.97814 39.5772 4.30439 37.336 4.96804C36.0011 4.73918 34.6503 4.61613 33.296 4.60004C30.8344 4.50658 28.3962 5.10747 26.26 6.33404C24.6399 5.78628 22.9786 5.36895 21.292 5.08604C19.3258 4.61437 17.286 4.53481 15.2891 4.8519C13.2922 5.16899 11.3773 5.87652 9.654 6.93404C6.186 9.38204 4.578 13.638 4.876 19.584C5.40956 24.0199 6.35088 28.397 7.688 32.66C8.45807 35.3229 9.47168 37.9091 10.716 40.386C11.635 42.6456 13.3819 44.4691 15.6 45.484C16.4131 45.7519 17.283 45.7975 18.1196 45.6161C18.9561 45.4346 19.729 45.0327 20.358 44.452C20.6435 44.7901 20.9811 45.0804 21.358 45.312C21.9422 45.6746 22.5791 45.9445 23.246 46.112C25.4289 46.72 27.7525 46.5792 29.846 45.712C29.858 46.054 29.868 46.382 29.874 46.666C29.886 47.124 29.9 47.574 29.916 47.996C29.8923 50.2269 30.1893 52.4497 30.798 54.596C30.83 54.682 30.872 54.81 30.916 54.948C31.2673 56.2617 31.9497 57.4634 32.898 58.438C34.0349 59.482 35.5352 60.0398 37.078 59.992C37.7352 59.9879 38.3901 59.9148 39.032 59.774C40.2489 59.6213 41.4228 59.2263 42.4846 58.6125C43.5463 57.9986 44.4744 57.1784 45.214 56.2C46.836 53.89 47.626 50.412 47.768 44.93C47.786 44.774 47.804 44.626 47.82 44.486L47.854 44.196L48.236 44.23H48.334C50.4968 44.3216 52.6541 43.9479 54.66 43.134C55.922 42.548 59.968 40.412 59.014 37.534" fill="black"/>
<path d="M55.378 38.106C49.052 39.41 48.618 37.27 48.618 37.27C55.296 27.36 58.088 14.78 55.678 11.702C49.106 3.30196 37.728 7.27596 37.538 7.37796L37.476 7.38996C36.0863 7.11105 34.6734 6.96373 33.256 6.94996C30.8658 6.83003 28.5071 7.53623 26.576 8.94996C26.576 8.94996 6.28 0.58796 7.224 19.466C7.424 23.482 12.98 49.854 19.606 41.888C22.028 38.976 24.368 36.512 24.368 36.512C25.5465 37.3074 26.9645 37.6693 28.38 37.536L28.494 37.44C28.4605 37.8184 28.476 38.1995 28.54 38.574C26.832 40.482 27.34 40.816 23.922 41.518C20.47 42.23 22.498 43.496 23.822 43.828C25.2287 44.283 26.7432 44.282 28.1494 43.8252C29.5555 43.3683 30.7814 42.4789 31.652 41.284L31.552 41.684C32.22 42.22 32.69 45.168 32.612 47.842C32.3939 49.8307 32.5293 51.8424 33.012 53.784C33.54 55.218 34.064 58.442 38.55 57.482C40.1452 57.3244 41.6289 56.5928 42.7252 55.4233C43.8215 54.2538 44.4557 52.726 44.51 51.124C44.71 48.656 45.136 49.02 45.162 46.814L45.51 45.77C45.91 42.424 45.574 41.344 47.882 41.846L48.444 41.896C50.2297 41.971 52.0112 41.6712 53.674 41.016C56.486 39.712 58.152 37.532 55.38 38.106" fill="#336791"/>
<path d="M27.764 21.2619C27.3052 21.1654 26.827 21.2364 26.416 21.4619C26.3624 21.5005 26.3172 21.5494 26.2828 21.6057C26.2485 21.662 26.2257 21.7247 26.216 21.7899C26.216 22.0206 26.2991 22.2435 26.45 22.4179C26.7183 22.7865 27.1191 23.0367 27.568 23.1159C27.6276 23.1242 27.6878 23.1282 27.748 23.1279C28.0451 23.1318 28.3363 23.0443 28.582 22.8772C28.8278 22.7102 29.0163 22.4717 29.122 22.1939C29.192 21.6979 28.47 21.3659 27.77 21.2679M46.654 21.2839C46.6 20.8939 45.906 20.7839 45.254 20.8839C44.602 20.9839 43.96 21.2719 44.014 21.6619C44.1157 21.9066 44.2879 22.1155 44.5088 22.2618C44.7296 22.4082 44.989 22.4856 45.254 22.4839C45.3095 22.4838 45.365 22.4798 45.42 22.4719C45.7668 22.411 46.0839 22.2374 46.322 21.9779C46.5211 21.8031 46.6427 21.5564 46.66 21.2919" fill="white"/>
<path d="M57.482 37.9581C57.24 37.2281 56.464 36.9941 55.174 37.2601C51.344 38.0601 49.974 37.5021 49.522 37.1721C52.5549 32.5163 54.8317 27.4098 56.268 22.0421C56.8493 19.9189 57.1849 17.7359 57.268 15.5361C57.4221 13.9974 57.0643 12.4507 56.25 11.1361C54.8086 9.32197 52.9655 7.86737 50.8661 6.88691C48.7667 5.90645 46.4683 5.42691 44.152 5.48608C41.7727 5.44885 39.4048 5.82163 37.152 6.58808C35.8635 6.27016 34.543 6.10039 33.216 6.08208C30.8286 5.97718 28.4688 6.6273 26.472 7.94008C24.6945 7.29021 22.8597 6.80942 20.992 6.50408C17.4216 5.64006 13.6546 6.21856 10.508 8.11408C7.508 10.2421 6.108 14.0461 6.386 19.4201C6.91135 23.7271 7.83053 27.9769 9.132 32.1161C11.272 39.1261 13.598 43.0961 16.046 43.9161C16.3625 44.0227 16.6941 44.0774 17.028 44.0781C17.6494 44.0396 18.2539 43.86 18.7956 43.553C19.3372 43.2459 19.8018 42.8195 20.154 42.3061C21.5433 40.6394 22.98 39.0141 24.464 37.4301C25.418 37.9464 26.4797 38.232 27.564 38.2641V38.3481C27.3773 38.5694 27.1953 38.7947 27.018 39.0241C26.268 39.9741 26.114 40.1721 23.702 40.6701C23.016 40.8121 21.194 41.1881 21.168 42.4701C21.14 43.8701 23.322 44.4521 23.568 44.5141C24.3843 44.724 25.2232 44.8328 26.066 44.8381C27.9093 44.8721 29.6966 44.2044 31.066 42.9701C30.8615 46.7763 31.1173 50.5932 31.828 54.3381C32.1564 55.537 32.8671 56.5959 33.8522 57.354C34.8373 58.112 36.043 58.5278 37.286 58.5381C37.9027 58.5362 38.5174 58.4691 39.12 58.3381C40.7653 58.196 42.3057 57.4705 43.4631 56.2925C44.6206 55.1145 45.3189 53.5617 45.432 51.9141C45.786 49.8621 46.394 44.9641 46.68 42.3361C47.4028 42.5347 48.1506 42.627 48.9 42.6101C50.6259 42.6225 52.3376 42.2964 53.938 41.6501C55.362 40.9881 57.938 39.3681 57.464 37.9581H57.482ZM48.102 20.2001C48.0764 20.9426 47.9988 21.6824 47.87 22.4141C47.7213 23.2739 47.6278 24.1423 47.59 25.0141C47.5832 25.9977 47.6501 26.9804 47.79 27.9541C48.222 29.9469 48.0628 32.0225 47.332 33.9261C47.1768 33.6508 47.0385 33.3662 46.918 33.0741C46.802 32.7921 46.548 32.3381 46.2 31.7121C44.84 29.2721 41.652 23.5561 43.284 21.2241C43.77 20.5301 45.004 19.8241 48.1 20.2001H48.102ZM44.348 7.06208C46.3952 7.02023 48.4242 7.45399 50.2753 8.32923C52.1264 9.20448 53.7492 10.4973 55.016 12.1061C56.966 14.5961 54.816 25.9301 48.606 35.7061L48.418 35.4681L48.34 35.3701C49.5737 33.0388 49.9327 30.343 49.352 27.7701C49.2183 26.875 49.1514 25.9711 49.152 25.0661C49.1882 24.2574 49.2758 23.4517 49.414 22.6541C49.594 21.6693 49.6764 20.6691 49.66 19.6681C49.6926 19.5306 49.7014 19.3885 49.686 19.2481C49.0233 16.57 47.7098 14.0968 45.862 12.0481C44.2017 10.0916 42.125 8.53087 39.784 7.48008C41.2832 7.16747 42.8128 7.0239 44.344 7.05208L44.348 7.06208ZM18.958 41.3081C17.704 42.8161 16.836 42.5281 16.558 42.4321C14.702 41.8121 12.546 37.8881 10.648 31.6641C9.38776 27.6466 8.49083 23.524 7.968 19.3461C7.728 14.5461 8.892 11.1981 11.428 9.39808C15.554 6.47208 22.34 8.22408 25.066 9.11208C25.026 9.15008 24.986 9.18608 24.948 9.22608C20.474 13.7441 20.58 21.4641 20.592 21.9361C20.592 22.1181 20.606 22.3761 20.628 22.7361C20.792 24.8867 20.7377 27.0484 20.466 29.1881C20.2801 30.4132 20.3756 31.6646 20.7453 32.8473C21.1151 34.03 21.7494 35.113 22.6 36.0141C22.7773 36.1981 22.9627 36.3727 23.156 36.5381C22.39 37.3581 20.724 39.1741 18.956 41.3081H18.958ZM23.738 34.9281C23.0483 34.1989 22.5339 33.3219 22.2342 32.364C21.9344 31.4061 21.857 30.3924 22.008 29.4001C22.2947 27.1578 22.353 24.8922 22.182 22.6381C22.17 22.4481 22.16 22.2821 22.154 22.1521C23.8294 20.8894 25.9085 20.2827 28 20.4461C28.4812 20.5551 28.9165 20.8113 29.2455 21.179C29.5746 21.5467 29.7809 22.0077 29.836 22.4981C31.128 28.4761 30.006 30.9661 29.106 32.9681C28.92 33.3801 28.744 33.7681 28.596 34.1681L28.48 34.4801C28.1926 35.2048 27.9468 35.9453 27.744 36.6981C26.9921 36.6874 26.2501 36.5247 25.5627 36.2198C24.8753 35.915 24.2567 35.4742 23.744 34.9241L23.738 34.9281ZM23.964 42.9881C23.5929 42.8968 23.2395 42.7447 22.918 42.5381C23.2755 42.3854 23.6492 42.274 24.032 42.2061C26.868 41.6221 27.306 41.2061 28.264 39.9961C28.484 39.7181 28.732 39.3961 29.076 39.0181C29.588 38.4441 29.824 38.5421 30.248 38.7181C30.4491 38.8273 30.6254 38.977 30.7659 39.1577C30.9063 39.3384 31.0078 39.5462 31.064 39.7681C31.1199 39.9292 31.1399 40.1005 31.1226 40.2701C31.1054 40.4398 31.0512 40.6036 30.964 40.7501C30.1887 41.8207 29.0915 42.6155 27.8326 43.0184C26.5736 43.4214 25.2189 43.4115 23.966 42.9901L23.964 42.9881ZM38.812 56.8001C38.2507 56.9952 37.6546 57.0698 37.0625 57.0189C36.4705 56.9681 35.8958 56.7929 35.376 56.5049C34.8562 56.2169 34.403 55.8225 34.046 55.3475C33.689 54.8724 33.4361 54.3274 33.304 53.7481C32.5997 49.2155 32.3985 44.6189 32.704 40.0421C32.706 39.9581 32.6945 39.8744 32.67 39.7941C32.649 39.6387 32.6169 39.4849 32.574 39.3341C32.4555 38.8842 32.2397 38.4658 31.9418 38.1085C31.6439 37.7512 31.2712 37.4636 30.85 37.2661C30.359 37.0226 29.8001 36.9521 29.264 37.0661C29.4535 36.3725 29.6819 35.69 29.948 35.0221L30.064 34.7081C30.196 34.3541 30.36 33.9881 30.534 33.6001C31.476 31.5061 32.768 28.6361 31.366 22.1561C31.2773 21.6049 31.0766 21.0777 30.7763 20.607C30.476 20.1364 30.0825 19.7322 29.62 19.4194C29.1575 19.1067 28.6359 18.892 28.0873 18.7885C27.5386 18.6851 26.9746 18.6952 26.43 18.8181C25.1127 18.989 23.8354 19.389 22.656 20.0001C22.5 20.0801 22.356 20.1561 22.224 20.2301C22.3753 16.596 23.7239 13.1139 26.06 10.3261C26.9983 9.40784 28.1181 8.69583 29.3477 8.23569C30.5772 7.77555 31.8894 7.57745 33.2 7.65408C35.4141 7.6733 37.597 8.17813 39.5948 9.13293C41.5925 10.0877 43.3564 11.4693 44.762 13.1801C46.1338 14.7819 47.2056 16.618 47.926 18.6001C45 18.3021 43.01 18.8801 42.002 20.3221C39.802 23.4581 43.202 29.5461 44.834 32.4721C45.134 33.0081 45.392 33.4721 45.472 33.6721C45.903 34.6782 46.4835 35.6134 47.194 36.4461C47.348 36.6461 47.498 36.8241 47.61 36.9881C46.724 37.2441 45.132 37.8341 45.278 40.7881C45.162 42.2681 44.33 49.1981 43.906 51.6481C43.348 54.8821 42.158 56.0881 38.81 56.8061L38.812 56.8001ZM53.296 40.2241C52.0648 40.7125 50.758 40.9832 49.434 41.0241C48.5531 41.1538 47.6535 41.0383 46.834 40.6901C46.744 38.8521 47.434 38.6601 48.154 38.4561C48.268 38.4241 48.378 38.3921 48.486 38.3561C48.5566 38.4131 48.63 38.4665 48.706 38.5161C49.984 39.3601 52.266 39.4501 55.486 38.7861H55.522C54.8564 39.3779 54.1036 39.8636 53.29 40.2261L53.296 40.2241Z" fill="white"/>
</svg>
