<svg width="82" height="82" viewBox="0 0 82 82" fill="none" xmlns="http://www.w3.org/2000/svg">
<path fill-rule="evenodd" clip-rule="evenodd" d="M41 58.8285C60.4297 58.8285 76.1804 50.8461 76.1804 41.0001C76.1804 31.154 60.4297 23.1716 41 23.1716C21.5708 23.1716 5.81959 31.154 5.81959 41.0001C5.81959 50.8461 21.5708 58.8285 41 58.8285Z" fill="#6E81B6"/>
<path fill-rule="evenodd" clip-rule="evenodd" d="M48.1269 46.7625L49.8719 37.7813C50.2658 35.7542 49.9383 34.2423 48.899 33.2868C47.892 32.3624 46.1828 31.9128 43.6737 31.9128H40.6516L41.516 27.463C41.5322 27.3802 41.5299 27.2948 41.5092 27.213C41.4885 27.1312 41.4499 27.055 41.3963 26.9898C41.3427 26.9247 41.2753 26.8722 41.1989 26.8362C41.1226 26.8002 41.0393 26.7815 40.9549 26.7815H36.7838C36.5098 26.7815 36.2746 26.9759 36.2222 27.2448L34.3687 36.7794C34.2003 35.7066 33.7851 34.7843 33.1206 34.0232C31.8971 32.6228 29.9619 31.9128 27.3682 31.9128H19.2838C19.0098 31.9128 18.7745 32.1072 18.7222 32.3756L14.9714 51.6755C14.9386 51.8436 14.9825 52.0163 15.0914 52.1482C15.1998 52.2805 15.3615 52.3566 15.5329 52.3566H19.7368C20.0108 52.3566 20.246 52.1622 20.2984 51.8929L21.2058 47.2249H24.3351C25.9771 47.2249 27.3572 47.0471 28.4343 46.6966C29.5357 46.3384 30.5494 45.7309 31.4428 44.8945C32.1647 44.2313 32.7611 43.4886 33.2201 42.6875L32.471 46.5434C32.4382 46.7114 32.482 46.885 32.591 47.016C32.6994 47.1483 32.8615 47.2245 33.0325 47.2245H37.2037C37.4776 47.2245 37.7129 47.0301 37.7652 46.7616L39.8237 36.1677H42.6859C43.9055 36.1677 44.2629 36.4106 44.3603 36.5148C44.4484 36.6101 44.6313 36.9458 44.4258 38.0038L42.7667 46.543C42.7508 46.6258 42.7534 46.7111 42.7742 46.7927C42.7951 46.8744 42.8337 46.9505 42.8873 47.0156C42.941 47.0806 43.0083 47.133 43.0845 47.1691C43.1607 47.2051 43.244 47.2239 43.3283 47.2241H47.5658C47.6983 47.2243 47.8269 47.1784 47.9293 47.0942C48.0317 47.0099 48.1016 46.8927 48.1269 46.7625V46.7625ZM28.7887 39.3417C28.5266 40.6881 28.0331 41.6482 27.321 42.1957C26.5978 42.7534 25.4411 43.0359 23.8828 43.0359H22.0196L23.3668 36.1026H25.7759C27.5456 36.1026 28.2586 36.4808 28.5449 36.7977C28.9418 37.2376 29.026 38.1178 28.7887 39.3417V39.3417ZM65.6967 34.0232C64.4736 32.6228 62.5384 31.9128 59.9447 31.9128H51.8602C51.5859 31.9128 51.351 32.1072 51.2987 32.3756L47.5483 51.6755C47.5151 51.8436 47.5589 52.0163 47.6679 52.1482C47.7768 52.28 47.9388 52.3566 48.109 52.3566H52.3133C52.5877 52.3566 52.8225 52.1622 52.8748 51.8929L53.7822 47.2249H56.912C58.5545 47.2249 59.9332 47.0471 61.0108 46.6966C62.1126 46.3384 63.1263 45.7309 64.0193 44.8945C64.7646 44.21 65.3776 43.4405 65.8421 42.6097C66.3067 41.7788 66.6398 40.8523 66.8342 39.8551C67.3119 37.3959 66.9295 35.4339 65.6967 34.0232V34.0232ZM61.6038 39.3417C61.3413 40.6881 60.8478 41.6482 60.1366 42.1957C59.4129 42.7534 58.2563 43.0359 56.6984 43.0359H54.8347L56.1815 36.1026H58.5911C60.3608 36.1026 61.0737 36.4808 61.3605 36.7977C61.7565 37.2376 61.8412 38.1178 61.6038 39.3417V39.3417Z" fill="white"/>
<path fill-rule="evenodd" clip-rule="evenodd" d="M25.7759 35.5305C27.3729 35.5305 28.4377 35.8253 28.9699 36.415C29.5016 37.0046 29.6284 38.017 29.3502 39.4511C29.0592 40.9447 28.4994 42.0108 27.6698 42.6497C26.8403 43.2887 25.5777 43.6078 23.8828 43.6078H21.3253L22.8951 35.5305H25.7759ZM15.5325 51.7845H19.7364L20.734 46.6537H24.3351C25.924 46.6537 27.2312 46.4865 28.2573 46.1526C29.2834 45.8186 30.2163 45.2592 31.0557 44.4735C31.7601 43.8264 32.3302 43.1117 32.7667 42.3307C33.2027 41.5496 33.5124 40.6882 33.6957 39.7459C34.1407 37.4581 33.8051 35.676 32.6897 34.3998C31.5747 33.1231 29.8003 32.485 27.3682 32.485H19.2838L15.5325 51.7845V51.7845ZM36.7834 27.3538H40.9545L39.9573 32.485H43.6737C46.0109 32.485 47.6245 32.8926 48.5119 33.7081C49.3993 34.5236 49.6651 35.8453 49.3104 37.6725L47.5653 46.6537H43.3278L44.9869 38.114C45.1754 37.1424 45.1065 36.48 44.7785 36.1265C44.4505 35.7734 43.7524 35.5965 42.6855 35.5965H39.352L37.2032 46.6537H33.0321L36.7834 27.3538ZM58.5911 35.5305C60.188 35.5305 61.2524 35.8253 61.785 36.415C62.3168 37.0046 62.4431 38.017 62.1649 39.4511C61.8748 40.9447 61.3149 42.0108 60.485 42.6497C59.6559 43.2887 58.3928 43.6078 56.6988 43.6078H54.1413L55.7106 35.5305H58.5911V35.5305ZM48.3468 51.7845H52.5511L53.5483 46.6537H57.1494C58.7387 46.6537 60.046 46.4865 61.072 46.1526C62.0981 45.8186 63.0311 45.2592 63.8704 44.4735C64.5749 43.8264 65.1449 43.1117 65.5809 42.3307C66.017 41.5496 66.3271 40.6882 66.5109 39.7459C66.9554 37.4581 66.6198 35.676 65.5048 34.3998C64.389 33.1231 62.615 32.485 60.1829 32.485H52.0985L48.3468 51.7845V51.7845Z" fill="black"/>
</svg>
