<svg width="78" height="78" viewBox="0 0 78 78" fill="none" xmlns="http://www.w3.org/2000/svg">
<path d="M29.4098 37.3189C29.4098 34.9267 28.7277 33.6985 27.3634 33.6314C26.8204 33.6057 26.2906 33.6921 25.7749 33.8924C25.3634 34.0396 25.0864 34.1855 24.9407 34.3328V40.0428C25.8134 40.5906 26.5883 40.8452 27.2641 40.8051C28.6939 40.7103 29.4098 39.5495 29.4098 37.3189ZM31.0927 37.4182C31.0927 38.6335 30.8076 39.6423 30.2343 40.4445C29.5954 41.3525 28.71 41.82 27.5779 41.8456C26.7245 41.8728 25.8452 41.6055 24.9406 41.0449V46.2347L23.477 45.7126V34.1934C23.7172 33.8988 24.0263 33.6458 24.4009 33.4311C25.2721 32.9235 26.3304 32.6626 27.5763 32.6498L27.597 32.6705C28.7356 32.6562 29.6128 33.1237 30.2294 34.0716C30.8043 34.9411 31.0927 36.0556 31.0927 37.4182V37.4182ZM40.0372 40.8242C40.0372 42.4543 39.8739 43.5831 39.5473 44.2108C39.2191 44.8383 38.5945 45.3395 37.6722 45.7128C36.9244 46.0073 36.1157 46.1675 35.2479 46.1948L35.006 45.2725C35.8883 45.1526 36.5096 45.0323 36.8699 44.9122C37.5792 44.6721 38.066 44.3039 38.3334 43.8106C38.548 43.4088 38.6536 42.6417 38.6536 41.5066V41.1254C37.6528 41.5803 36.6041 41.8061 35.5073 41.8061C34.7866 41.8061 34.151 41.5803 33.6033 41.1254C32.9884 40.6306 32.6811 40.0031 32.6811 39.2425V33.151L34.1446 32.6498V38.7809C34.1446 39.4357 34.3559 39.9402 34.7786 40.294C35.2013 40.6479 35.749 40.8178 36.4199 40.8048C37.0908 40.7903 37.8097 40.5309 38.5734 40.0233V32.8706H40.037V40.8242H40.0372ZM45.7503 41.7656C45.59 41.7792 45.4292 41.7861 45.2683 41.7863C44.4405 41.7863 43.7951 41.5895 43.3341 41.194C42.8744 40.7985 42.644 40.2526 42.644 39.5559V33.7914H41.6415V32.8707H42.644V30.4256L44.1059 29.9052V32.8707H45.7503V33.7914H44.1059V39.5158C44.1059 40.0652 44.2531 40.4542 44.5476 40.6817C44.8006 40.869 45.2026 40.9763 45.7502 41.0036V41.7656H45.7503ZM54.6117 41.6456H53.1482V35.9963C53.1482 35.4215 53.0138 34.9267 52.7463 34.5137C52.4373 34.046 52.0082 33.8122 51.4572 33.8122C50.7863 33.8122 49.9473 34.1661 48.9401 34.8738V41.6456H47.4767V28.1423L48.9401 27.6812V33.8314C49.8752 33.1508 50.8969 32.8098 52.0066 32.8098C52.7816 32.8098 53.4092 33.0708 53.8897 33.5913C54.3717 34.1115 54.6119 34.7601 54.6119 35.5352V41.6456H54.6117V41.6456ZM62.3905 37.0884C62.3905 36.1693 62.216 35.4103 61.8684 34.8099C61.4553 34.0782 60.8133 33.6921 59.9454 33.6522C58.3409 33.745 57.5402 34.8947 57.5402 37.0981C57.5402 38.1085 57.7067 38.9524 58.043 39.6297C58.4721 40.4928 59.1159 40.9188 59.9743 40.9043C61.585 40.8913 62.3905 39.62 62.3905 37.0884V37.0884ZM63.9934 37.098C63.9934 38.4063 63.6587 39.4951 62.9909 40.3645C62.2558 41.3382 61.2409 41.8264 59.9454 41.8264C58.6612 41.8264 57.6604 41.338 56.9382 40.3645C56.2833 39.4951 55.9565 38.4063 55.9565 37.098C55.9565 35.8683 56.3104 34.8339 57.0182 33.9916C57.766 33.0981 58.7491 32.6498 59.9646 32.6498C61.1798 32.6498 62.1694 33.0981 62.9316 33.9916C63.6395 34.8339 63.9934 35.8683 63.9934 37.098V37.098ZM72.3838 41.6456H70.9202V35.6761C70.9202 35.0213 70.7234 34.5104 70.3295 34.1421C69.9355 33.7754 69.4102 33.5977 68.7553 33.612C68.0606 33.6248 67.3991 33.8521 66.7715 34.2926V41.6456H65.3079V34.1117C66.1502 33.4986 66.9253 33.0981 67.633 32.9108C68.3006 32.7364 68.8899 32.6498 69.3975 32.6498C69.7448 32.6498 70.0717 32.6833 70.3791 32.7506C70.9539 32.8836 71.4216 33.1301 71.7817 33.492C72.1837 33.8924 72.3838 34.3726 72.3838 34.9347V41.6456V41.6456Z" fill="white"/>
<path d="M9.02206 28.1962C8.269 28.1997 7.54995 28.2639 6.91731 28.3759C5.0534 28.7053 4.71498 29.3945 4.71498 30.6657V32.3444H9.11964V32.904H3.06184C1.78177 32.904 0.66073 33.6734 0.310158 35.1372C-0.0942978 36.815 -0.112204 37.8619 0.310158 39.6138C0.623274 40.9178 1.37107 41.847 2.65114 41.847H4.16563V39.8346C4.16563 38.3807 5.42352 37.0983 6.91731 37.0983H11.3169C12.5416 37.0983 13.5192 36.09 13.5192 34.86V30.6655C13.5192 29.4718 12.5122 28.575 11.3169 28.3758C10.56 28.2499 9.77511 28.1926 9.02206 28.1962V28.1962ZM6.64001 29.5463C7.09506 29.5463 7.4665 29.9239 7.4665 30.3882C7.4665 30.8508 7.0949 31.225 6.64001 31.225C6.18347 31.225 5.81352 30.851 5.81352 30.3882C5.81352 29.9239 6.18347 29.5463 6.64001 29.5463Z" fill="url(#paint0_linear_262_170)"/>
<path d="M14.0686 32.9038V34.8597C14.0686 36.3762 12.7829 37.6525 11.3169 37.6525H6.91731C5.71216 37.6525 4.71498 38.6838 4.71498 39.8908V44.085C4.71498 45.2788 5.7529 45.9809 6.91731 46.3233C8.31155 46.7333 9.64862 46.8074 11.3169 46.3233C12.4258 46.0023 13.5192 45.356 13.5192 44.085V42.4064H9.11964V41.8468H15.7215C17.0018 41.8468 17.4787 40.9538 17.9239 39.6136C18.3838 38.234 18.3643 36.907 17.9239 35.137C17.6075 33.8627 17.0032 32.9038 15.7215 32.9038H14.0686V32.9038ZM11.594 43.5255C12.0505 43.5255 12.4205 43.8995 12.4205 44.3623C12.4205 44.8265 12.0505 45.2042 11.594 45.2042C11.139 45.2042 10.7675 44.8265 10.7675 44.3623C10.7675 43.8997 11.1391 43.5255 11.594 43.5255Z" fill="url(#paint1_linear_262_170)"/>
<path d="M75.2339 31.5658H75.4905V29.9565H76.0981V29.7646H74.6259V29.9565H75.2337V31.5658M76.3258 31.5658H76.545V30.096L77.0207 31.5656H77.2647L77.7606 30.1009V31.5658H77.9998V29.7648H77.6834L77.1415 31.3079L76.6795 29.7648H76.3258V31.5658" fill="white"/>
<path opacity="0.444" d="M15.0723 49.1747C15.0723 49.8069 12.4295 50.3193 9.16942 50.3193C5.90946 50.3193 3.26669 49.8069 3.26669 49.1747C3.26669 48.5426 5.90946 48.03 9.16942 48.03C12.4295 48.03 15.0723 48.5426 15.0723 49.1747Z" fill="url(#paint2_radial_262_170)"/>
<defs>
<linearGradient id="paint0_linear_262_170" x1="-0.434356" y1="28.7204" x2="9.72276" y2="37.3746" gradientUnits="userSpaceOnUse">
<stop stop-color="#5A9FD4"/>
<stop offset="1" stop-color="#306998"/>
</linearGradient>
<linearGradient id="paint1_linear_262_170" x1="13.534" y1="42.7696" x2="9.88985" y2="37.6635" gradientUnits="userSpaceOnUse">
<stop stop-color="#FFD43B"/>
<stop offset="1" stop-color="#FFE873"/>
</linearGradient>
<radialGradient id="paint2_radial_262_170" cx="0" cy="0" r="1" gradientUnits="userSpaceOnUse" gradientTransform="translate(9.16753 49.1484) rotate(-90) scale(1.14437 5.03111)">
<stop stop-color="#B8B8B8" stop-opacity="0.498"/>
<stop offset="1" stop-color="#7F7F7F" stop-opacity="0"/>
</radialGradient>
</defs>
</svg>
