<svg width="78" height="78" viewBox="0 0 78 78" fill="none" xmlns="http://www.w3.org/2000/svg">
<g clip-path="url(#clip0_262_118)">
<path d="M41.3076 33.686C43.693 33.686 46.0351 35.5727 46.0351 38.9773V39.0207C46.0351 42.4037 43.7147 44.312 41.3076 44.312C39.6161 44.312 38.5535 43.4663 37.8379 42.5121V46.1119C37.8379 46.75 37.3373 47.2629 36.7042 47.2824L36.6669 47.283C36.038 47.283 35.5175 46.7625 35.5175 46.1336V34.9004C35.4958 34.2715 36.0163 33.7511 36.6452 33.7294H36.6669C37.3049 33.7294 37.8178 34.23 37.8373 34.863L37.8379 34.9004V35.5944C38.5969 34.5318 39.6595 33.686 41.3076 33.686ZM72.1881 33.6643C73.81 33.6643 74.8649 34.4834 75.6214 35.5222L75.6578 35.5727V34.8787L75.6583 34.8414C75.6774 34.221 76.1704 33.7278 76.7907 33.7083L76.8288 33.7077H76.8505C77.4885 33.729 78.0014 34.23 78.0005 34.863L77.9998 34.9004V42.0133C77.9998 43.7265 77.5444 45.006 76.6987 45.8517C75.7879 46.7842 74.3566 47.2179 72.5133 47.2179C71.1471 47.2179 69.8026 46.9143 68.5665 46.3071C68.1762 46.177 67.916 45.7866 67.916 45.3746C67.9377 44.8325 68.3714 44.4204 68.9135 44.4204C69.0653 44.4204 69.1954 44.4421 69.3255 44.5072C70.2797 45.0493 71.364 45.3096 72.4483 45.3096C74.4217 45.3096 75.5493 44.3554 75.6578 42.5121C74.9421 43.4446 73.8795 44.2903 72.1881 44.2903C69.805 44.2903 67.507 42.42 67.4613 39.1001L67.4606 38.999V38.9556C67.4606 35.551 69.8026 33.6643 72.1881 33.6643ZM62.9283 33.7294C65.2269 33.7294 66.5498 35.2691 66.5498 37.6328V43.1193C66.5715 43.7482 66.0727 44.247 65.4438 44.2686H65.4004C64.7715 44.2903 64.2511 43.7699 64.2294 43.141V38.3484C64.2294 36.7654 63.4487 35.8546 62.0391 35.8546C60.6946 35.8546 59.7405 36.8088 59.7405 38.3918V43.141C59.7405 43.7916 59.22 44.312 58.5694 44.312C57.9189 44.312 57.3984 43.7916 57.3984 43.141L57.4201 34.9221C57.3984 34.2932 57.9189 33.7728 58.5477 33.7511H58.5694C59.2075 33.7511 59.7204 34.2517 59.7399 34.8847L59.7405 34.9221V35.3992C60.4344 34.3149 61.6488 33.686 62.9283 33.7294ZM30.6599 33.7077C31.7876 33.7294 32.8719 34.0113 33.8694 34.5318C34.2164 34.7052 34.4332 35.0305 34.4332 35.4209C34.4332 35.9413 33.9995 36.375 33.4791 36.375H33.4574C33.3056 36.375 33.1538 36.3317 33.002 36.2666C32.2647 35.8546 31.4623 35.616 30.6165 35.5727C29.7057 35.5727 29.1853 36.0064 29.1853 36.5702V36.6136C29.1853 37.3726 30.2913 37.6762 31.484 38.0665C31.5165 38.0764 31.5491 38.0864 31.5818 38.0966L31.68 38.1274C31.7947 38.1637 31.91 38.2017 32.025 38.2416L32.1235 38.2764C33.4189 38.7406 34.6501 39.4733 34.6501 41.0375V41.0808C34.6501 43.2277 32.9803 44.2903 30.8768 44.2903C29.4889 44.2686 28.1227 43.8566 26.9733 43.0759C26.6914 42.9024 26.5179 42.5988 26.5396 42.2736C26.5396 41.7531 26.9517 41.3194 27.4721 41.3194H27.4938C27.6673 41.3194 27.8408 41.3628 27.9926 41.4495C28.86 42.0567 29.8792 42.382 30.9201 42.4254C31.9177 42.4254 32.5032 41.9916 32.5032 41.3194V41.276C32.5032 40.4736 31.4189 40.2134 30.2262 39.8448C30.1015 39.8086 29.9755 39.7713 29.8492 39.732L29.7544 39.7023C28.3959 39.27 27.0384 38.6005 27.0384 36.8521V36.8088C27.0384 34.8787 28.6431 33.7077 30.6599 33.7077ZM55.0563 33.7511C55.6944 33.7511 56.2073 34.2517 56.2268 34.8847L56.2274 34.9221V43.141C56.2274 43.7916 55.7069 44.2903 55.0563 44.2903C54.4058 44.2903 53.907 43.7699 53.907 43.141V34.9221C53.8853 34.2932 54.4058 33.7728 55.0347 33.7511H55.0563ZM52.9745 34.7052V34.8787C52.9745 35.4426 52.5842 35.9196 52.042 36.0064C50.3722 36.2883 49.2446 37.7412 49.2446 39.758V43.1193C49.2446 43.7699 48.7241 44.2686 48.0735 44.2686C47.457 44.2686 46.9447 43.7892 46.9248 43.1778L46.9242 43.1409V43.1193L46.9459 34.9004C46.9242 34.2715 47.4447 33.7511 48.0735 33.7294H48.0952C48.7333 33.7294 49.2462 34.23 49.2657 34.863L49.2663 34.9004V35.4643C49.3747 34.5968 50.8059 33.7294 51.8252 33.7294C52.4107 33.686 52.9311 34.1197 52.9745 34.7052ZM40.7871 35.7245C39.2041 35.7245 37.8162 37.0473 37.8162 38.9773V39.0207C37.8162 40.9724 39.2041 42.2736 40.7871 42.2736C42.3702 42.2736 43.693 41.0375 43.693 39.0207V38.9773C43.693 37.0039 42.3702 35.7245 40.7871 35.7245ZM72.7302 35.7028C71.1635 35.7028 69.8516 36.956 69.8247 38.8948L69.8243 38.9556V38.999C69.8243 41.0158 71.1255 42.2736 72.7302 42.2736C74.3186 42.2736 75.6945 40.9776 75.7014 39.0586L75.7011 38.999V38.9556C75.7011 37.0256 74.3133 35.7028 72.7302 35.7028ZM56.2491 30.8886V30.9319C56.2491 31.5825 55.7286 32.103 55.078 32.103C54.4275 32.103 53.907 31.5825 53.907 30.9319C53.907 30.2939 54.4076 29.781 55.0406 29.7615L55.078 29.7609C55.7069 29.7392 56.2274 30.2597 56.2491 30.8886Z" fill="#6DB33F"/>
<path d="M3.20581 31.3656C7.36946 27.3321 14.027 27.4405 18.0605 31.6259C18.5159 31.0187 18.9063 30.3464 19.1882 29.6525C20.511 33.686 21.3134 37.069 21.0098 39.6929C20.858 41.9049 19.9905 44.0301 18.5593 45.7216C14.8293 50.1455 8.19352 50.7093 3.76963 46.9793L3.68459 46.9037L3.66988 46.8936C3.65965 46.8863 3.64953 46.8787 3.63952 46.8709C3.59949 46.8398 3.5631 46.8059 3.53036 46.7697L3.51853 46.7561L3.37929 46.6324C3.24918 46.5208 3.11906 46.4093 3.00261 46.2841L2.94558 46.2203C-1.08796 42.0567 -0.95785 35.3992 3.20581 31.3656ZM4.76718 45.483C4.37683 45.1794 3.81301 45.2228 3.50941 45.6131C3.24473 45.9534 3.24376 46.4256 3.5065 46.7422L3.51853 46.7561L3.68459 46.9037L3.70088 46.9149C4.07657 47.1623 4.58113 47.114 4.87343 46.7701L4.89729 46.7408C5.20089 46.3505 5.13583 45.7866 4.76718 45.483ZM19.0797 30.7367C17.9955 33.0137 15.3064 34.7486 12.9861 35.2907C12.0921 35.5032 11.2451 35.5566 10.4185 35.5986L10.1711 35.611C9.06033 35.6665 7.98197 35.728 6.87069 36.1582C2.27332 37.9147 2.36006 43.3795 4.87561 44.6156L5.02741 44.7023C5.02741 44.7023 6.69204 44.3714 8.41032 43.9246L8.56429 43.8843C8.58996 43.8776 8.61564 43.8708 8.64131 43.8639L8.79523 43.8228C9.51291 43.6294 10.219 43.4185 10.7958 43.206C13.7884 42.1001 17.0847 39.3677 18.1689 36.2015C17.6051 39.4978 14.7643 42.6856 11.9235 44.1385C10.4055 44.9192 9.23443 45.0927 6.74058 45.9601C6.43698 46.0685 6.19843 46.177 6.19843 46.177C6.21273 46.175 6.22702 46.173 6.24131 46.1711L6.32687 46.1598L6.4119 46.1491C6.96213 46.0809 7.45621 46.0469 7.45621 46.0469C10.991 45.8734 16.5425 47.0444 19.1231 43.5964C21.7688 40.0833 20.2941 34.4016 19.0797 30.7367Z" fill="#6DB33F"/>
<path d="M4.76718 45.4831C5.13584 45.7867 5.20089 46.3505 4.89729 46.7409C4.59369 47.1312 4.02986 47.1746 3.63952 46.871C3.24918 46.5674 3.20581 46.0036 3.50941 45.6132C3.81301 45.2229 4.37684 45.1795 4.76718 45.4831ZM19.0797 30.7368C20.2941 34.4017 21.7688 40.0834 19.1231 43.5964C16.5425 47.0445 10.991 45.8734 7.45621 46.0469C7.45621 46.0469 6.82732 46.0903 6.19844 46.177C6.19844 46.177 6.43698 46.0686 6.74058 45.9602C9.23443 45.0928 10.4055 44.9193 11.9235 44.1386C14.7643 42.6856 17.6051 39.4978 18.1689 36.2016C17.0847 39.3677 13.7884 42.1001 10.7958 43.2061C10.2602 43.4034 9.61312 43.5993 8.9488 43.7811L8.79523 43.8228C6.94977 44.3202 5.02741 44.7024 5.02741 44.7024L4.87561 44.6157C2.36006 43.3796 2.27332 37.9148 6.87069 36.1582C8.88746 35.3776 10.7958 35.8113 12.9861 35.2908C15.3064 34.7487 17.9955 33.0138 19.0797 30.7368Z" fill="white"/>
</g>
<defs>
<clipPath id="clip0_262_118">
<rect width="78" height="78" fill="white"/>
</clipPath>
</defs>
</svg>
