<svg width="64" height="64" viewBox="0 0 64 64" fill="none" xmlns="http://www.w3.org/2000/svg">
<path d="M31.9723 63.8383L13.5024 58.7109L9.38635 12.5458H54.6136L50.4933 58.7038L31.9723 63.8383V63.8383Z" fill="#264DE4"/>
<path d="M46.9659 55.7645L50.4868 16.3203H32V59.9135L46.9659 55.7645V55.7645Z" fill="#2965F1"/>
<path d="M18.8222 33.4424L19.3296 39.1044H32V33.4424H18.8222ZM17.8025 21.9825L18.3171 27.6445H32V21.9825H17.8025V21.9825ZM32 48.1472L31.9752 48.1538L25.6695 46.4511L25.2664 41.9355H19.5826L20.3758 50.8256L31.974 54.0451L32 54.038V48.1472Z" fill="#EBEBEB"/>
<path d="M20.0304 0H26.8878V2.86777H22.8982V5.73553H26.8881V8.60312H20.0304V0ZM28.2594 0H35.117V2.4937H31.1272V2.9924H35.117V8.72793H28.2596V6.10925H32.2494V5.61055H28.2593V0H28.2594ZM36.4887 0H43.3463V2.4937H39.3564V2.9924H43.3463V8.72793H36.4887V6.10925H40.4785V5.61055H36.4889V0H36.4887Z" fill="white"/>
<path d="M45.1417 33.4424L46.1637 21.9825H31.9805V27.6445H39.9587L39.4435 33.4424H31.9805V39.1044H38.9526L38.2953 46.4476L31.9803 48.152V54.0425L43.5877 50.8256L43.6728 49.869L45.0035 34.9628L45.1417 33.4424V33.4424Z" fill="white"/>
</svg>
