<svg width="64" height="64" viewBox="0 0 64 64" fill="none" xmlns="http://www.w3.org/2000/svg">
<path d="M54.6137 12.5458L50.4934 58.7038L31.9724 63.8383L13.5025 58.7109L9.38647 12.5458H54.6137Z" fill="#E44D26"/>
<path d="M32 59.9135L46.9659 55.7645L50.4868 16.3203H32V59.9135Z" fill="#F16529"/>
<path d="M23.9903 27.6445H32V21.9825H17.8025L17.9379 23.5015L19.3296 39.1044H32V33.4424H24.5078L23.9903 27.6445V27.6445ZM25.2664 41.9355H19.5826L20.3758 50.8256L31.974 54.0451L32 54.038V48.1472L31.9752 48.1538L25.6695 46.4511L25.2664 41.9355V41.9355Z" fill="#EBEBEB"/>
<path d="M13.5942 0H16.4716V2.84277H19.1037V0H21.9813V8.60862H19.1039V5.72596H16.4718V8.60862H13.5944V0H13.5942ZM25.7649 2.85483H23.2322V0H31.177V2.85483H28.6427V8.60862H25.7654V2.85483H25.7652H25.7649ZM32.4379 0H35.4381L37.2836 3.02484L39.1274 0H42.1288V8.60862H39.2632V4.34172L37.2836 7.40255H37.234L35.2532 4.34172V8.60862H32.4379V0ZM43.5608 0H46.439V5.76319H50.4854V8.60862H43.5606V0H43.5608Z" fill="white"/>
<path d="M31.9804 39.1044H38.9525L38.2951 46.4476L31.9802 48.152V54.0425L43.5876 50.8256L43.6727 49.869L45.0034 34.9628L45.1415 33.4424H31.9804V39.1044ZM31.9804 27.6307V27.6445H45.6567L45.7702 26.372L46.0283 23.5015L46.1636 21.9825H31.9804V27.6309V27.6307Z" fill="white"/>
</svg>
