<svg width="32" height="32" viewBox="0 0 32 32" fill="none" xmlns="http://www.w3.org/2000/svg">
<g clip-path="url(#clip0_255_21)">
<path d="M0 0H31.58V31.58H0V0Z" fill="#F7DF1E"/>
<path d="M8.30359 26.3906L10.7202 24.928C11.1865 25.7547 11.6106 26.4541 12.628 26.4541C13.6031 26.4541 14.2181 26.0727 14.2181 24.5889V14.4984H17.1857V24.6308C17.1857 27.7046 15.3839 29.1037 12.7551 29.1037C10.3811 29.1037 9.00304 27.8742 8.30347 26.3903M18.7976 26.0725L21.214 24.6735C21.8502 25.7123 22.6769 26.4754 24.1395 26.4754C25.3693 26.4754 26.1533 25.8606 26.1533 25.0126C26.1533 23.9952 25.3478 23.6347 23.9911 23.0414L23.2493 22.7231C21.1082 21.8118 19.6879 20.6671 19.6879 18.2505C19.6879 16.0246 21.3838 14.3286 24.0336 14.3286C25.9203 14.3286 27.277 14.9859 28.252 16.7029L25.9413 18.1869C25.4324 17.2754 24.8815 16.9151 24.0335 16.9151C23.1643 16.9151 22.6132 17.4663 22.6132 18.1869C22.6132 19.0772 23.1643 19.4378 24.4362 19.989L25.178 20.3069C27.7007 21.3881 29.121 22.4903 29.121 24.9703C29.121 27.6416 27.0224 29.1041 24.203 29.1041C21.4473 29.1041 19.6666 27.7898 18.7975 26.0727" fill="black"/>
</g>
<defs>
<clipPath id="clip0_255_21">
<rect width="31.58" height="31.58" fill="white"/>
</clipPath>
</defs>
</svg>
