<svg width="64" height="64" viewBox="0 0 64 64" fill="none" xmlns="http://www.w3.org/2000/svg">
<path d="M50.2563 23.1685C49.655 22.9623 49.0487 22.7712 48.4378 22.5955C48.5391 22.1839 48.6328 21.7704 48.7188 21.3553C50.0953 14.6733 49.1953 9.29029 46.1218 7.51829C43.175 5.81879 38.3555 7.59079 33.488 11.8265C33.0084 12.2449 32.5394 12.6753 32.0815 13.1173C31.7749 12.8234 31.4629 12.5352 31.1455 12.2528C26.0443 7.72329 20.931 5.81479 17.8608 7.59204C14.9168 9.29629 14.0448 14.357 15.284 20.6895C15.4073 21.3166 15.5465 21.9405 15.7015 22.5605C14.978 22.766 14.2793 22.985 13.6108 23.218C7.63029 25.303 3.81079 28.571 3.81079 31.9605C3.81079 35.4615 7.91079 38.973 14.1403 41.102C14.6454 41.2739 15.1547 41.4331 15.6678 41.5795C15.5011 42.2475 15.3531 42.92 15.224 43.5963C14.0425 49.8188 14.9653 54.7595 17.9015 56.4533C20.9343 58.202 26.0243 56.4045 30.9808 52.072C31.3725 51.7295 31.7658 51.3663 32.1595 50.9855C32.6555 51.4641 33.1647 51.9287 33.6865 52.3788C38.4875 56.51 43.229 58.1783 46.1628 56.48C49.1928 54.726 50.1773 49.4183 48.8988 42.9605C48.8013 42.4673 48.6875 41.9635 48.56 41.4505C48.9175 41.345 49.2683 41.236 49.6105 41.1225C56.0865 38.977 60.2998 35.5083 60.2998 31.9605C60.2998 28.5588 56.3573 25.2688 50.2563 23.1685V23.1685Z" fill="#53C1DE"/>
<path d="M48.8514 38.832C48.5426 38.9342 48.2256 39.033 47.9026 39.1287C47.1876 36.8655 46.2226 34.4587 45.0421 31.9725C46.1689 29.545 47.0964 27.1692 47.7914 24.9205C48.3691 25.088 48.9301 25.2642 49.4706 25.4505C54.6981 27.2497 57.8866 29.9105 57.8866 31.9605C57.8866 34.1442 54.4426 36.9792 48.8514 38.832ZM46.5314 43.4292C47.0966 46.2847 47.1774 48.8665 46.8029 50.8847C46.4664 52.6982 45.7899 53.9072 44.9534 54.3915C43.1731 55.422 39.3659 54.0825 35.2604 50.5495C34.7896 50.1445 34.3154 49.712 33.8399 49.2545C35.4316 47.5135 37.0224 45.4895 38.5749 43.242C41.3059 42.9997 43.8859 42.6035 46.2256 42.0627C46.3406 42.5277 46.4431 42.9835 46.5314 43.4292ZM23.0689 54.2135C21.3296 54.8277 19.9444 54.8452 19.1071 54.3625C17.3251 53.335 16.5846 49.3675 17.5949 44.0462C17.715 43.4174 17.8526 42.792 18.0074 42.1707C20.3211 42.6825 22.8824 43.0507 25.6199 43.2727C27.1826 45.472 28.8194 47.4935 30.4689 49.2637C30.1183 49.6028 29.7595 49.9333 29.3926 50.2547C27.2009 52.1707 25.0044 53.5297 23.0689 54.2135ZM14.9206 38.8185C12.1661 37.877 9.89138 36.6535 8.33213 35.3185C6.93113 34.1185 6.22363 32.9272 6.22363 31.9605C6.22363 29.9037 9.29038 27.28 14.4051 25.4967C15.0471 25.2739 15.6955 25.0699 16.3494 24.885C17.0564 27.1842 17.9836 29.5882 19.1026 32.0192C17.9691 34.4865 17.0286 36.9287 16.3151 39.255C15.8468 39.1209 15.3818 38.9754 14.9206 38.8185ZM17.6521 20.226C16.5904 14.8002 17.2954 10.7075 19.0696 9.68049C20.9596 8.58649 25.1384 10.1465 29.5429 14.0572C29.8244 14.3072 30.1071 14.569 30.3904 14.8397C28.7494 16.602 27.1276 18.6082 25.5784 20.7947C22.9216 21.041 20.3784 21.4365 18.0404 21.9662C17.8964 21.3894 17.7669 20.8093 17.6521 20.226ZM42.0189 26.2427C41.4667 25.2888 40.8939 24.347 40.3011 23.4177C42.1036 23.6452 43.8304 23.9477 45.4519 24.318C44.9651 25.8782 44.3584 27.5097 43.6439 29.1822C43.1218 28.1917 42.5801 27.2117 42.0189 26.2427ZM32.0821 16.5642C33.1951 17.77 34.3099 19.1165 35.4064 20.5772C33.1821 20.4721 30.9542 20.4716 28.7299 20.5757C29.8274 19.1285 30.9516 17.784 32.0821 16.5642ZM22.0816 26.2592C21.5275 27.2204 20.9958 28.1945 20.4871 29.1805C19.7844 27.5137 19.1831 25.875 18.6921 24.2925C20.3039 23.9317 22.0226 23.637 23.8134 23.4132C23.2139 24.3482 22.6365 25.2971 22.0816 26.2592ZM23.8649 40.68C22.0149 40.4735 20.2701 40.1937 18.6589 39.843C19.1576 38.2325 19.7721 36.5585 20.4899 34.856C21.0007 35.8427 21.5347 36.8173 22.0914 37.779C22.6594 38.7599 23.2507 39.7272 23.8649 40.68ZM32.1489 47.5272C31.0051 46.293 29.8644 44.928 28.7501 43.4597C29.8316 43.5022 30.9344 43.5237 32.0551 43.5237C33.2066 43.5237 34.3449 43.498 35.4651 43.448C34.3651 44.943 33.2544 46.31 32.1489 47.5272ZM43.6669 34.7692C44.4219 36.4902 45.0584 38.1552 45.5639 39.7385C43.9259 40.1122 42.1576 40.4132 40.2944 40.6367C40.8915 39.6902 41.4697 38.7318 42.0286 37.7622C42.5969 36.7768 43.1431 35.7789 43.6669 34.7692ZM39.9381 36.5567C39.0824 38.0432 38.1786 39.5015 37.2281 40.9292C35.5521 41.049 33.8201 41.1107 32.0551 41.1107C30.2974 41.1107 28.5874 41.056 26.9406 40.9492C25.9655 39.5248 25.0446 38.064 24.1799 36.57C23.3192 35.0839 22.5153 33.5656 21.7699 32.0185C22.5134 30.4709 23.3149 28.9518 24.1726 27.4645C25.0301 25.9768 25.9438 24.5228 26.9116 23.1045C28.5916 22.9775 30.3141 22.911 32.0554 22.911C33.8044 22.911 35.5291 22.978 37.2086 23.106C38.1667 24.5221 39.0745 25.9716 39.9304 27.4517C40.7911 28.9358 41.6032 30.4474 42.3656 31.9842C41.6111 33.5367 40.8012 35.0619 39.9381 36.5567ZM44.9164 9.60874C46.8079 10.6997 47.5436 15.099 46.3551 20.8682C46.2772 21.2441 46.1926 21.6185 46.1011 21.9912C43.7576 21.4505 41.2126 21.048 38.5481 20.798C36.9959 18.5877 35.3876 16.578 33.7731 14.8385C34.1962 14.4306 34.6293 14.0333 35.0721 13.647C39.2426 10.0175 43.1404 8.58449 44.9164 9.60874Z" fill="#26282B"/>
<path d="M32.0552 26.9163C34.8412 26.9163 37.0995 29.1748 37.0995 31.9605C37.0995 34.7465 34.8412 37.005 32.0552 37.005C29.2695 37.005 27.011 34.7465 27.011 31.9605C27.011 29.1748 29.2695 26.9163 32.0552 26.9163" fill="#53C1DE"/>
</svg>
