<svg width="44" height="44" viewBox="0 0 44 44" fill="none" xmlns="http://www.w3.org/2000/svg">
<g clip-path="url(#clip0_255_33)">
<path d="M21.7359 0C9.75053 0 0.000488281 9.74958 0.000488281 21.7341C0.000488281 33.7195 9.75098 43.47 21.7355 43.47C33.7196 43.47 43.4691 33.7195 43.4691 21.7341C43.4696 9.75004 33.72 0 21.7359 0ZM2.19386 21.7341C2.19386 18.9016 2.80138 16.2114 3.88587 13.7818L13.2077 39.3217C6.68947 36.1536 2.19386 29.4692 2.19386 21.7341ZM21.7359 41.2771C19.8176 41.2771 17.9662 40.9957 16.2155 40.4808L22.0783 23.4437L28.0862 39.8999C28.125 39.997 28.1724 40.0855 28.2253 40.1691C26.1941 40.8837 24.0115 41.2771 21.7359 41.2771ZM24.4284 12.5722C25.6046 12.5103 26.6656 12.3861 26.6656 12.3861C27.718 12.2614 27.5947 10.7144 26.5405 10.7763C26.5405 10.7763 23.3756 11.0242 21.3317 11.0242C19.412 11.0242 16.1843 10.7763 16.1843 10.7763C15.131 10.7144 15.0081 12.3242 16.061 12.3861C16.061 12.3861 17.0583 12.5103 18.1103 12.5722L21.1546 20.9143L16.8781 33.7398L9.76317 12.5726C10.9412 12.5112 11.9999 12.3865 11.9999 12.3865C13.0523 12.2623 12.9281 10.7144 11.8743 10.7776C11.8743 10.7776 8.71075 11.0256 6.66643 11.0256C6.29921 11.0256 5.86695 11.0161 5.40894 11.0021C8.90226 5.69618 14.9092 2.19337 21.7359 2.19337C26.8242 2.19337 31.4557 4.13832 34.9319 7.32314C34.8474 7.31862 34.7657 7.30733 34.678 7.30733C32.7593 7.30733 31.397 8.97946 31.397 10.7758C31.397 12.3856 32.3252 13.7488 33.3157 15.3586C34.0597 16.6603 34.9269 18.3329 34.9269 20.7481C34.9269 22.4211 34.2846 24.3615 33.4395 27.0653L31.4905 33.579L24.4284 12.5722ZM31.5596 38.6261L37.5286 21.3682C38.6447 18.5809 39.0146 16.3518 39.0146 14.3685C39.0146 13.6499 38.9677 12.9818 38.8827 12.359C40.4094 15.1427 41.278 18.3374 41.2771 21.735C41.2767 28.9439 37.3687 35.2385 31.5596 38.6261Z" fill="white"/>
</g>
<defs>
<clipPath id="clip0_255_33">
<rect width="43.47" height="43.47" fill="white"/>
</clipPath>
</defs>
</svg>
